<?xml version="1.0" encoding="iso-8859-1"?>
<!-- Uploaded to: SVG Repo, www.svgrepo.com, Generator: SVG Repo Mixer Tools -->
<svg height="800px" width="800px" version="1.1" id="Layer_1" xmlns="http://www.w3.org/2000/svg" xmlns:xlink="http://www.w3.org/1999/xlink" 
	 viewBox="0 0 504.129 504.129" xml:space="preserve">
<polygon style="fill:#007EEF;" points="496.543,426.796 7.441,426.796 156.221,289.178 347.772,289.178 "/>
<polyline style="fill:#006CED;" points="156.221,289.178 347.772,289.178 496.543,426.796 "/>
<path style="fill:#00C3FF;" d="M496.685,434.24c0,0-0.079,0-0.142,0H7.441c-3.056,0-5.805-1.875-6.932-4.726
	c-1.111-2.859-0.37-6.105,1.875-8.184l148.787-137.618c1.371-1.26,3.167-1.969,5.049-1.969h191.551c1.859,0,3.671,0.709,5.049,1.969
	l147.952,136.862c2.016,1.339,3.356,3.616,3.356,6.215C504.129,430.916,500.797,434.24,496.685,434.24z M26.433,419.36h451.111
	L344.849,296.622H159.127L26.433,419.36z"/>
<path style="fill:#007EEF;" d="M385.589,327.547c0,3.458-2.804,6.262-6.254,6.262H124.8c-3.458,0-6.27-2.796-6.27-6.262V141.856
	c0-3.45,2.804-6.262,6.27-6.262h254.535c3.45,0,6.254,2.812,6.254,6.262L385.589,327.547L385.589,327.547z"/>
<g>
	<path style="fill:#006CED;" d="M118.53,141.856c0-3.45,2.804-6.262,6.27-6.262h254.535c3.45,0,6.254,2.812,6.254,6.262v185.691
		c0,3.458-2.804,6.262-6.254,6.262"/>
	<path style="fill:#006CED;" d="M411.961,144.637L254.619,70.468c-1.631-0.772-3.482-0.772-5.112,0L92.165,144.637
		c-2.528,1.182-3.899,4.001-3.3,6.727c0.614,2.741,3.064,4.695,5.853,4.695h314.691c2.788,0,5.222-1.953,5.845-4.695
		C415.868,148.638,414.497,145.826,411.961,144.637z"/>
</g>
<path style="fill:#0069D1;" d="M254.619,92.436c-1.631-0.756-3.482-0.756-5.112,0l-134.94,63.614h274.999L254.619,92.436z"/>
<path style="fill:#025DB7;" d="M249.507,100.684l-117.461,55.367h240.041l-117.461-55.367
	C252.989,99.92,251.138,99.92,249.507,100.684z"/>
<path style="fill:#007EEF;" d="M285.709,140.423c0,2.387-1.922,4.309-4.324,4.309h-58.659c-2.379,0-4.309-1.922-4.309-4.309l0,0
	c0-2.371,1.93-4.293,4.309-4.293h58.659C283.787,136.13,285.709,138.052,285.709,140.423L285.709,140.423z"/>
<path style="fill:#0069D1;" d="M343.132,244.083h-40.787c-2.702,0-4.907,2.198-4.907,4.907v84.819h50.601V248.99
	C348.039,246.289,345.834,244.083,343.132,244.083z"/>
<path style="fill:#025DB7;" d="M343.132,244.083h-40.787c-2.702,0-4.907,2.198-4.907,4.907v24.537l50.601,37.25V248.99
	C348.039,246.289,345.834,244.083,343.132,244.083z"/>
<path style="fill:#007EEF;" d="M342.541,293.637c0,2.15-1.764,3.907-3.931,3.907c-2.158,0-13.69-1.757-13.69-3.907
	s11.532-3.907,13.69-3.907C340.785,289.73,342.541,291.486,342.541,293.637z"/>
<g>
	<path style="fill:#00C3FF;" d="M394.34,331.501c0,2.725-2.198,4.923-4.923,4.923H114.709c-2.725,0-4.923-2.198-4.923-4.923l0,0
		c0-2.71,2.198-4.923,4.923-4.923h274.708C392.142,326.578,394.34,328.791,394.34,331.501L394.34,331.501z"/>
	<path style="fill:#00C3FF;" d="M443.618,376.147c0,3.08-2.497,5.585-5.585,5.585h-221.2c-3.096,0-5.585-2.505-5.585-5.585l0,0
		c0-3.08,2.489-5.585,5.585-5.585h221.2C441.121,370.563,443.618,373.068,443.618,376.147L443.618,376.147z"/>
	<path style="fill:#00C3FF;" d="M205.341,425.363c0,3.45-2.796,6.246-6.246,6.246l0,0c-3.45,0-6.231-2.796-6.231-6.246v-24.938
		c0-3.45,2.788-6.231,6.231-6.231l0,0c3.45,0,6.246,2.788,6.246,6.231V425.363z"/>
</g>
</svg>